<svg width="350" height="42" viewBox="0 0 350 42" fill="none" xmlns="http://www.w3.org/2000/svg">
<rect width="350" height="42" rx="4" fill="#56B280"/>
<g clip-path="url(#clip0_116_294)">
<path fill-rule="evenodd" clip-rule="evenodd" d="M98.7615 10.25C98.7615 10.0511 98.8409 9.86032 98.9824 9.71967C99.1239 9.57902 99.3157 9.5 99.5158 9.5H101.779C101.947 9.50005 102.11 9.55603 102.243 9.65904C102.376 9.76205 102.47 9.90618 102.51 10.0685L103.121 12.5H120.636C120.748 12.5001 120.858 12.5247 120.959 12.5722C121.06 12.6197 121.149 12.6889 121.219 12.7746C121.29 12.8604 121.341 12.9608 121.368 13.0684C121.395 13.176 121.398 13.2882 121.376 13.397L119.867 20.897C119.834 21.0605 119.747 21.2085 119.62 21.3174C119.493 21.4264 119.333 21.4901 119.166 21.4985L104.989 22.2065L105.422 24.5H118.374C118.574 24.5 118.765 24.579 118.907 24.7197C119.048 24.8603 119.128 25.0511 119.128 25.25C119.128 25.4489 119.048 25.6397 118.907 25.7803C118.765 25.921 118.574 26 118.374 26H104.796C104.62 25.9998 104.45 25.9386 104.315 25.8268C104.179 25.7151 104.088 25.5599 104.055 25.388L101.794 13.4105L101.19 11H99.5158C99.3157 11 99.1239 10.921 98.9824 10.7803C98.8409 10.6397 98.7615 10.4489 98.7615 10.25ZM103.441 14L104.708 20.7185L118.503 20.03L119.716 14H103.441ZM106.305 26C105.504 26 104.737 26.3161 104.171 26.8787C103.605 27.4413 103.287 28.2044 103.287 29C103.287 29.7956 103.605 30.5587 104.171 31.1213C104.737 31.6839 105.504 32 106.305 32C107.105 32 107.872 31.6839 108.438 31.1213C109.004 30.5587 109.322 29.7956 109.322 29C109.322 28.2044 109.004 27.4413 108.438 26.8787C107.872 26.3161 107.105 26 106.305 26ZM116.865 26C116.065 26 115.297 26.3161 114.731 26.8787C114.166 27.4413 113.848 28.2044 113.848 29C113.848 29.7956 114.166 30.5587 114.731 31.1213C115.297 31.6839 116.065 32 116.865 32C117.665 32 118.433 31.6839 118.998 31.1213C119.564 30.5587 119.882 29.7956 119.882 29C119.882 28.2044 119.564 27.4413 118.998 26.8787C118.433 26.3161 117.665 26 116.865 26ZM106.305 27.5C105.904 27.5 105.521 27.658 105.238 27.9393C104.955 28.2206 104.796 28.6022 104.796 29C104.796 29.3978 104.955 29.7794 105.238 30.0607C105.521 30.342 105.904 30.5 106.305 30.5C106.705 30.5 107.088 30.342 107.371 30.0607C107.654 29.7794 107.813 29.3978 107.813 29C107.813 28.6022 107.654 28.2206 107.371 27.9393C107.088 27.658 106.705 27.5 106.305 27.5ZM116.865 27.5C116.465 27.5 116.081 27.658 115.798 27.9393C115.515 28.2206 115.356 28.6022 115.356 29C115.356 29.3978 115.515 29.7794 115.798 30.0607C116.081 30.342 116.465 30.5 116.865 30.5C117.265 30.5 117.649 30.342 117.932 30.0607C118.215 29.7794 118.374 29.3978 118.374 29C118.374 28.6022 118.215 28.2206 117.932 27.9393C117.649 27.658 117.265 27.5 116.865 27.5Z" fill="white"/>
</g>
<path d="M148.125 19.373V21.0723H138.379V19.373H148.125ZM144.16 15.2227V25.5742H142.354V15.2227H144.16ZM160.84 14.041L156.133 27H154.209L159.629 12.7812H160.869L160.84 14.041ZM164.785 27L160.068 14.041L160.039 12.7812H161.279L166.719 27H164.785ZM164.541 21.7363V23.2793H156.553V21.7363H164.541ZM175.01 24.9492V12H176.826V27H175.166L175.01 24.9492ZM167.9 21.834V21.6289C167.9 20.8216 167.998 20.0892 168.193 19.4316C168.395 18.7676 168.678 18.1979 169.043 17.7227C169.414 17.2474 169.854 16.8828 170.361 16.6289C170.876 16.3685 171.449 16.2383 172.08 16.2383C172.744 16.2383 173.324 16.3555 173.818 16.5898C174.32 16.8177 174.743 17.153 175.088 17.5957C175.439 18.0319 175.716 18.5592 175.918 19.1777C176.12 19.7962 176.26 20.4961 176.338 21.2773V22.1758C176.266 22.9505 176.126 23.6471 175.918 24.2656C175.716 24.8841 175.439 25.4115 175.088 25.8477C174.743 26.2839 174.32 26.6191 173.818 26.8535C173.317 27.0814 172.731 27.1953 172.061 27.1953C171.442 27.1953 170.876 27.0618 170.361 26.7949C169.854 26.528 169.414 26.1536 169.043 25.6719C168.678 25.1901 168.395 24.6237 168.193 23.9727C167.998 23.3151 167.9 22.6022 167.9 21.834ZM169.717 21.6289V21.834C169.717 22.3613 169.769 22.8561 169.873 23.3184C169.984 23.7806 170.153 24.1875 170.381 24.5391C170.609 24.8906 170.898 25.1673 171.25 25.3691C171.602 25.5645 172.021 25.6621 172.51 25.6621C173.109 25.6621 173.6 25.5352 173.984 25.2812C174.375 25.0273 174.688 24.6921 174.922 24.2754C175.156 23.8587 175.339 23.4062 175.469 22.918V20.5645C175.391 20.2064 175.277 19.8613 175.127 19.5293C174.984 19.1908 174.795 18.8913 174.561 18.6309C174.333 18.3639 174.049 18.1523 173.711 17.9961C173.379 17.8398 172.985 17.7617 172.529 17.7617C172.035 17.7617 171.608 17.8659 171.25 18.0742C170.898 18.276 170.609 18.556 170.381 18.9141C170.153 19.2656 169.984 19.6758 169.873 20.1445C169.769 20.6068 169.717 21.1016 169.717 21.6289ZM186.299 24.9492V12H188.115V27H186.455L186.299 24.9492ZM179.189 21.834V21.6289C179.189 20.8216 179.287 20.0892 179.482 19.4316C179.684 18.7676 179.967 18.1979 180.332 17.7227C180.703 17.2474 181.143 16.8828 181.65 16.6289C182.165 16.3685 182.738 16.2383 183.369 16.2383C184.033 16.2383 184.613 16.3555 185.107 16.5898C185.609 16.8177 186.032 17.153 186.377 17.5957C186.729 18.0319 187.005 18.5592 187.207 19.1777C187.409 19.7962 187.549 20.4961 187.627 21.2773V22.1758C187.555 22.9505 187.415 23.6471 187.207 24.2656C187.005 24.8841 186.729 25.4115 186.377 25.8477C186.032 26.2839 185.609 26.6191 185.107 26.8535C184.606 27.0814 184.02 27.1953 183.35 27.1953C182.731 27.1953 182.165 27.0618 181.65 26.7949C181.143 26.528 180.703 26.1536 180.332 25.6719C179.967 25.1901 179.684 24.6237 179.482 23.9727C179.287 23.3151 179.189 22.6022 179.189 21.834ZM181.006 21.6289V21.834C181.006 22.3613 181.058 22.8561 181.162 23.3184C181.273 23.7806 181.442 24.1875 181.67 24.5391C181.898 24.8906 182.188 25.1673 182.539 25.3691C182.891 25.5645 183.311 25.6621 183.799 25.6621C184.398 25.6621 184.889 25.5352 185.273 25.2812C185.664 25.0273 185.977 24.6921 186.211 24.2754C186.445 23.8587 186.628 23.4062 186.758 22.918V20.5645C186.68 20.2064 186.566 19.8613 186.416 19.5293C186.273 19.1908 186.084 18.8913 185.85 18.6309C185.622 18.3639 185.339 18.1523 185 17.9961C184.668 17.8398 184.274 17.7617 183.818 17.7617C183.324 17.7617 182.897 17.8659 182.539 18.0742C182.188 18.276 181.898 18.556 181.67 18.9141C181.442 19.2656 181.273 19.6758 181.162 20.1445C181.058 20.6068 181.006 21.1016 181.006 21.6289ZM200.312 16.4336V17.8203H194.6V16.4336H200.312ZM196.533 13.8652H198.34V24.3828C198.34 24.7409 198.395 25.0111 198.506 25.1934C198.617 25.3757 198.76 25.4961 198.936 25.5547C199.111 25.6133 199.3 25.6426 199.502 25.6426C199.652 25.6426 199.808 25.6296 199.971 25.6035C200.14 25.571 200.267 25.5449 200.352 25.5254L200.361 27C200.218 27.0456 200.029 27.0879 199.795 27.127C199.567 27.1725 199.29 27.1953 198.965 27.1953C198.522 27.1953 198.115 27.1074 197.744 26.9316C197.373 26.7559 197.077 26.4629 196.855 26.0527C196.641 25.6361 196.533 25.0762 196.533 24.373V13.8652ZM201.758 21.834V21.6094C201.758 20.8477 201.868 20.1413 202.09 19.4902C202.311 18.8327 202.63 18.263 203.047 17.7812C203.464 17.293 203.968 16.9154 204.561 16.6484C205.153 16.375 205.817 16.2383 206.553 16.2383C207.295 16.2383 207.962 16.375 208.555 16.6484C209.154 16.9154 209.661 17.293 210.078 17.7812C210.501 18.263 210.824 18.8327 211.045 19.4902C211.266 20.1413 211.377 20.8477 211.377 21.6094V21.834C211.377 22.5957 211.266 23.3021 211.045 23.9531C210.824 24.6042 210.501 25.1738 210.078 25.6621C209.661 26.1439 209.157 26.5215 208.564 26.7949C207.979 27.0618 207.314 27.1953 206.572 27.1953C205.83 27.1953 205.163 27.0618 204.57 26.7949C203.978 26.5215 203.47 26.1439 203.047 25.6621C202.63 25.1738 202.311 24.6042 202.09 23.9531C201.868 23.3021 201.758 22.5957 201.758 21.834ZM203.564 21.6094V21.834C203.564 22.3613 203.626 22.8594 203.75 23.3281C203.874 23.7904 204.059 24.2005 204.307 24.5586C204.561 24.9167 204.876 25.1999 205.254 25.4082C205.632 25.61 206.071 25.7109 206.572 25.7109C207.067 25.7109 207.5 25.61 207.871 25.4082C208.249 25.1999 208.561 24.9167 208.809 24.5586C209.056 24.2005 209.242 23.7904 209.365 23.3281C209.495 22.8594 209.561 22.3613 209.561 21.834V21.6094C209.561 21.0885 209.495 20.597 209.365 20.1348C209.242 19.666 209.053 19.2526 208.799 18.8945C208.551 18.5299 208.239 18.2435 207.861 18.0352C207.49 17.8268 207.054 17.7227 206.553 17.7227C206.058 17.7227 205.622 17.8268 205.244 18.0352C204.873 18.2435 204.561 18.5299 204.307 18.8945C204.059 19.2526 203.874 19.666 203.75 20.1348C203.626 20.597 203.564 21.0885 203.564 21.6094ZM222.832 25.7109C223.262 25.7109 223.659 25.623 224.023 25.4473C224.388 25.2715 224.688 25.0306 224.922 24.7246C225.156 24.4121 225.29 24.0573 225.322 23.6602H227.041C227.008 24.2852 226.797 24.8678 226.406 25.4082C226.022 25.9421 225.518 26.375 224.893 26.707C224.268 27.0326 223.581 27.1953 222.832 27.1953C222.038 27.1953 221.344 27.0553 220.752 26.7754C220.166 26.4954 219.678 26.1113 219.287 25.623C218.903 25.1348 218.613 24.5749 218.418 23.9434C218.229 23.3053 218.135 22.6315 218.135 21.9219V21.5117C218.135 20.8021 218.229 20.1315 218.418 19.5C218.613 18.862 218.903 18.2988 219.287 17.8105C219.678 17.3223 220.166 16.9382 220.752 16.6582C221.344 16.3783 222.038 16.2383 222.832 16.2383C223.659 16.2383 224.382 16.4076 225 16.7461C225.618 17.0781 226.104 17.5339 226.455 18.1133C226.813 18.6862 227.008 19.3372 227.041 20.0664H225.322C225.29 19.6302 225.166 19.2363 224.951 18.8848C224.743 18.5332 224.456 18.2533 224.092 18.0449C223.734 17.8301 223.314 17.7227 222.832 17.7227C222.279 17.7227 221.813 17.8333 221.436 18.0547C221.064 18.2695 220.768 18.5625 220.547 18.9336C220.332 19.2982 220.176 19.7051 220.078 20.1543C219.987 20.597 219.941 21.0495 219.941 21.5117V21.9219C219.941 22.3841 219.987 22.8398 220.078 23.2891C220.169 23.7383 220.322 24.1452 220.537 24.5098C220.758 24.8743 221.055 25.1673 221.426 25.3887C221.803 25.6035 222.272 25.7109 222.832 25.7109ZM235.303 25.1934V19.7539C235.303 19.3372 235.218 18.9759 235.049 18.6699C234.886 18.3574 234.639 18.1165 234.307 17.9473C233.975 17.778 233.564 17.6934 233.076 17.6934C232.62 17.6934 232.22 17.7715 231.875 17.9277C231.536 18.084 231.27 18.2891 231.074 18.543C230.885 18.7969 230.791 19.0703 230.791 19.3633H228.984C228.984 18.9857 229.082 18.6113 229.277 18.2402C229.473 17.8691 229.753 17.5339 230.117 17.2344C230.488 16.9284 230.931 16.6875 231.445 16.5117C231.966 16.3294 232.546 16.2383 233.184 16.2383C233.952 16.2383 234.629 16.3685 235.215 16.6289C235.807 16.8893 236.27 17.2832 236.602 17.8105C236.94 18.3314 237.109 18.9857 237.109 19.7734V24.6953C237.109 25.0469 237.139 25.4212 237.197 25.8184C237.262 26.2155 237.357 26.5573 237.48 26.8438V27H235.596C235.505 26.7917 235.433 26.515 235.381 26.1699C235.329 25.8184 235.303 25.4928 235.303 25.1934ZM235.615 20.5938L235.635 21.8633H233.809C233.294 21.8633 232.835 21.9056 232.432 21.9902C232.028 22.0684 231.689 22.1888 231.416 22.3516C231.143 22.5143 230.934 22.7194 230.791 22.9668C230.648 23.2077 230.576 23.4909 230.576 23.8164C230.576 24.1484 230.651 24.4512 230.801 24.7246C230.951 24.998 231.175 25.2161 231.475 25.3789C231.781 25.5352 232.155 25.6133 232.598 25.6133C233.151 25.6133 233.639 25.4961 234.062 25.2617C234.486 25.0273 234.821 24.7409 235.068 24.4023C235.322 24.0638 235.459 23.735 235.479 23.416L236.25 24.2852C236.204 24.5586 236.081 24.8613 235.879 25.1934C235.677 25.5254 235.407 25.8444 235.068 26.1504C234.736 26.4499 234.339 26.7005 233.877 26.9023C233.421 27.0977 232.907 27.1953 232.334 27.1953C231.618 27.1953 230.99 27.0553 230.449 26.7754C229.915 26.4954 229.499 26.1211 229.199 25.6523C228.906 25.1771 228.76 24.6465 228.76 24.0605C228.76 23.4941 228.87 22.9961 229.092 22.5664C229.313 22.1302 229.632 21.7689 230.049 21.4824C230.465 21.1895 230.967 20.9681 231.553 20.8184C232.139 20.6686 232.793 20.5938 233.516 20.5938H235.615ZM241.758 18.0938V27H239.951V16.4336H241.709L241.758 18.0938ZM245.059 16.375L245.049 18.0547C244.899 18.0221 244.756 18.0026 244.619 17.9961C244.489 17.9831 244.339 17.9766 244.17 17.9766C243.753 17.9766 243.385 18.0417 243.066 18.1719C242.747 18.3021 242.477 18.4844 242.256 18.7188C242.035 18.9531 241.859 19.2331 241.729 19.5586C241.605 19.8776 241.523 20.2292 241.484 20.6133L240.977 20.9062C240.977 20.2682 241.038 19.6693 241.162 19.1094C241.292 18.5495 241.491 18.0547 241.758 17.625C242.025 17.1888 242.363 16.8503 242.773 16.6094C243.19 16.362 243.685 16.2383 244.258 16.2383C244.388 16.2383 244.538 16.2546 244.707 16.2871C244.876 16.3132 244.993 16.3424 245.059 16.375ZM251.641 16.4336V17.8203H245.928V16.4336H251.641ZM247.861 13.8652H249.668V24.3828C249.668 24.7409 249.723 25.0111 249.834 25.1934C249.945 25.3757 250.088 25.4961 250.264 25.5547C250.439 25.6133 250.628 25.6426 250.83 25.6426C250.98 25.6426 251.136 25.6296 251.299 25.6035C251.468 25.571 251.595 25.5449 251.68 25.5254L251.689 27C251.546 27.0456 251.357 27.0879 251.123 27.127C250.895 27.1725 250.618 27.1953 250.293 27.1953C249.85 27.1953 249.443 27.1074 249.072 26.9316C248.701 26.7559 248.405 26.4629 248.184 26.0527C247.969 25.6361 247.861 25.0762 247.861 24.373V13.8652Z" fill="white"/>
<defs>
<clipPath id="clip0_116_294">
<rect width="24.1379" height="24" fill="white" transform="translate(98.7615 8)"/>
</clipPath>
</defs>
</svg>
